<?xml version="1.0" encoding="utf-8"?>
<!-- Generator: Adobe Illustrator 24.1.3, SVG Export Plug-In . SVG Version: 6.00 Build 0)  -->
<svg version="1.1" id="Layer_1" xmlns="http://www.w3.org/2000/svg" xmlns:xlink="http://www.w3.org/1999/xlink" x="0px" y="0px"
	 viewBox="0 0 601.962 137.67" enable-background="new 0 0 601.962 137.67" xml:space="preserve">
<g id="Streched_1_">
	<g>
		<g>
			<path fill="#0E0F0E" d="M6.109,133.109V97.207h7.951c7.8,0,11.55,2.6,11.55,9.151c0,3.85-1.699,6.35-4.75,7.7v0.1
				c4.301,1.55,5.65,4.85,5.65,8.851c0,7.851-4.95,10.101-11.9,10.101H6.109V133.109z M14.06,112.558c3.7,0,7.2-1.3,7.2-5.95
				c0-4.601-3.601-5.4-7.15-5.4h-3.751v11.351L14.06,112.558L14.06,112.558z M14.81,129.109c5,0,7.3-1.65,7.3-6.25
				c0-4.601-2.3-6.55-7.3-6.55h-4.451v12.801L14.81,129.109L14.81,129.109z"/>
			<path fill="#0E0F0E" d="M54.559,97.207h4.301v24.902c0,7.45-3.2,11.4-10.4,11.4c-7.201,0-10.151-3.95-10.151-11.4V97.207h4.351
				v25.552c0,4.9,1.8,6.851,5.801,6.851c3.95,0,6.1-1.95,6.1-6.851V97.207H54.559z"/>
			<path fill="#0E0F0E" d="M77.16,133.109v-31.852h-7.851v-4.05H89.26v4.05h-7.8v31.852H77.16z"/>
			<path fill="#0E0F0E" d="M119.61,121.508c-1.1,8.101-4.35,12.051-10.4,12.051c-7.9,0-10.851-6.701-10.851-18.551
				c0-11.101,3.3-18.251,10.95-18.251c6.001,0,8.951,3.9,9.951,11.3l-4,0.4c-0.9-5.25-2.801-7.65-5.951-7.65
				c-4.35,0-6.6,4.65-6.6,14.201c0,10.201,1.95,14.551,6.55,14.551c3.5,0,5.45-2.75,6.251-8.451L119.61,121.508z"/>
			<path fill="#0E0F0E" d="M147.259,133.109v-16.701h-11.9v16.701h-4.351V97.207h4.351v15.151h11.9V97.207h4.301v35.902
				L147.259,133.109L147.259,133.109z"/>
			<path fill="#0E0F0E" d="M164.808,133.109V97.207h17.102v4.05h-12.801v11.251h9.5v3.95h-9.5v12.601h13.551v4.05L164.808,133.109
				L164.808,133.109z"/>
			<path fill="#0E0F0E" d="M209.209,133.109l-6-15.801h-5.5v15.801h-4.301V97.207h8.301c7.7,0,11.2,3,11.2,9.551
				c0,4.75-2.199,7.7-5.65,9.05l6.701,17.301L209.209,133.109L209.209,133.109z M202.109,113.408c3.05,0,6.4-1.1,6.4-6.25
				c0-5.2-3.001-6-6.801-6h-4v12.251L202.109,113.408L202.109,113.408z"/>
			<path fill="#0E0F0E" d="M230.508,133.109v-14.851l-8.851-21.051h4.65l6.3,15.951h0.101l6.7-15.951h4.55l-9.101,21.051v14.851
				H230.508z"/>
			<path fill="#0E0F0E" d="M285.708,133.109l-2.3-10.201h-9.801l-2.25,10.201h-4.351l8.501-35.902h6.05l8.601,35.902H285.708z
				 M274.508,118.908h8l-3.95-17.701h-0.1L274.508,118.908z"/>
			<path fill="#0E0F0E" d="M317.508,133.109l-12.601-28.552h-0.101v28.552h-3.95V97.207h5.851l10.751,24.751h0.1V97.207h4v35.902
				L317.508,133.109L317.508,133.109z"/>
			<path fill="#0E0F0E" d="M334.805,133.109V97.207h6.851c10.2,0,14.401,5.201,14.401,17.601c0,12.101-4.251,18.301-14.501,18.301
				H334.805z M341.906,128.959c6.801,0,9.801-4.3,9.801-14.101c0-9.751-2.95-13.501-9.551-13.501h-3v27.602H341.906z"/>
			<path fill="#0E0F0E" d="M396.306,106.457c-0.8-3.8-2.301-5.8-5.501-5.8c-3,0-4.85,1.65-4.85,4.601
				c0,8.15,14.851,7.15,14.851,18.851c0,6.05-3.75,9.451-9.751,9.451c-5.899,0-8.7-3.05-9.851-9.501l4.051-0.7
				c0.8,4.4,2.35,6.3,5.95,6.3c3.301,0,5.4-1.85,5.4-5.2c0-8.75-14.65-7.601-14.65-18.951c0-5.5,3.45-8.75,8.85-8.75
				c5.701,0,8.501,3.35,9.301,9L396.306,106.457z"/>
			<path fill="#0E0F0E" d="M417.007,133.109v-31.852h-7.851v-4.05h19.951v4.05h-7.801v31.852H417.007z"/>
			<path fill="#0E0F0E" d="M436.706,115.108c0-12.101,3.65-18.351,11.251-18.351s11.301,6.25,11.301,18.351
				c0,12.051-3.801,18.451-11.301,18.451C440.456,133.559,436.706,127.159,436.706,115.108z M454.857,115.108
				c0-9.901-2.45-14.401-6.9-14.401s-6.9,4.5-6.9,14.401c0,9.951,2.55,14.551,6.9,14.551
				C452.356,129.659,454.857,125.059,454.857,115.108z"/>
			<path fill="#0E0F0E" d="M486.707,133.109l-6-15.801h-5.5v15.801h-4.301V97.207h8.301c7.7,0,11.2,3,11.2,9.551
				c0,4.75-2.199,7.7-5.65,9.05l6.701,17.301L486.707,133.109L486.707,133.109z M479.607,113.408c3.05,0,6.4-1.1,6.4-6.25
				c0-5.2-3.001-6-6.801-6h-4v12.251L479.607,113.408L479.607,113.408z"/>
			<path fill="#0E0F0E" d="M502.705,133.109V97.207h17.102v4.05h-12.801v11.251h9.5v3.95h-9.5v12.601h13.551v4.05L502.705,133.109
				L502.705,133.109z"/>
		</g>
	</g>
	<g>
		<path fill="#D34442" d="M36.282,89.173V51.811H17.106v37.362H5.922V4.814h11.185v34.425h19.176V4.814H47.28v84.359
			C47.28,89.173,36.282,89.173,36.282,89.173z"/>
		<path fill="#D34442" d="M56.587,46.993c0-27.964,6.485-43.237,22.276-43.237s22.37,15.273,22.37,43.237
			c0,27.729-6.861,43.237-22.37,43.237S56.587,74.722,56.587,46.993z M89.86,46.993c0-21.972-3.666-31.136-10.997-31.136
			c-7.237,0-10.903,9.164-10.903,31.136c0,22.793,3.947,31.253,10.903,31.253C86.007,78.246,89.86,69.786,89.86,46.993z"/>
		<path fill="#D34442" d="M135.545,89.173L125.111,58.86h-0.188l-10.527,30.313h-11.843l15.697-43.59L103.68,4.814h12.219
			l9.212,27.258h0.188l9.681-27.258h11.844l-14.852,40.652l15.697,43.707C147.669,89.173,135.545,89.173,135.545,89.173z"/>
		<path fill="#D34442" d="M162.993,89.173V17.502h-13.911V4.814h38.913v12.688h-13.911v71.671H162.993z"/>
		<path fill="#D34442" d="M189.876,46.993c0-27.964,6.485-43.237,22.276-43.237s22.37,15.273,22.37,43.237
			c0,27.729-6.861,43.237-22.37,43.237S189.876,74.722,189.876,46.993z M223.149,46.993c0-21.972-3.666-31.136-10.997-31.136
			c-7.237,0-10.903,9.164-10.903,31.136c0,22.793,3.947,31.253,10.903,31.253C219.296,78.246,223.149,69.786,223.149,46.993z"/>
		<path fill="#D34442" d="M275.318,89.173l-21.524-58.276h-0.188v58.276h-9.963V4.814h12.877l18.517,51.227h0.188V4.814h10.151
			v84.359C285.376,89.173,275.318,89.173,275.318,89.173z"/>
		<path fill="#0E0F0E" d="M327.487,89.173V51.811h-19.176v37.362h-11.185V4.814h11.185v34.425h19.176V4.814h10.997v84.359
			C338.484,89.173,327.487,89.173,327.487,89.173z"/>
		<path fill="#0E0F0E" d="M380.219,89.173l-3.572-21.618h-16.166l-3.479,21.618h-11.279l15.321-84.359h14.945l15.696,84.359
			C391.685,89.173,380.219,89.173,380.219,89.173z M362.455,55.218h12.219l-6.016-36.775h-0.282L362.455,55.218z"/>
		<path fill="#0E0F0E" d="M398.834,89.173V4.814h11.185v71.67h22.559v12.689C432.578,89.173,398.834,89.173,398.834,89.173z"/>
		<path fill="#0E0F0E" d="M469.049,89.173l-3.571-21.618H449.31l-3.478,21.618h-11.279l15.321-84.359h14.945l15.697,84.359
			C480.516,89.173,469.049,89.173,469.049,89.173z M451.284,55.218h12.219l-6.016-36.775h-0.281L451.284,55.218z"/>
		<path fill="#0E0F0E" d="M487.663,89.173V4.814h11.186v71.67h22.559v12.689C521.408,89.173,487.663,89.173,487.663,89.173z"/>
	</g>
	<g>
		<path fill="none" stroke="#0E0F0E" stroke-width="2.5" stroke-miterlimit="10" d="M565.702,61.012
			c-2.068,17.774-8.365,26.994-20.679,26.994c-16.167,0-21.431-15.552-21.431-41.212c0-22.995,5.64-40.546,21.618-40.546
			c12.972,0,18.142,9.553,19.833,25.771l-10.34,1.111c-1.409-10.108-4.323-15.107-9.305-15.107c-6.861,0-10.434,8.553-10.434,28.771
			c0,22.106,3.102,29.548,10.34,29.548c5.357,0,8.553-5.665,9.963-16.552L565.702,61.012z"/>
		<path fill="none" stroke="#0E0F0E" stroke-width="2.5" stroke-miterlimit="10" d="M570.253,29.729
			c0-15.186,3.782-23.481,12.99-23.481s13.045,8.295,13.045,23.481c0,15.058-4.001,23.48-13.045,23.48
			S570.253,44.787,570.253,29.729z M589.656,29.729c0-11.932-2.138-16.909-6.413-16.909c-4.221,0-6.357,4.977-6.357,16.909
			c0,12.378,2.302,16.972,6.357,16.972C587.409,46.701,589.656,42.107,589.656,29.729z"/>
	</g>
</g>
</svg>
